<svg id="Layer_1" data-name="Layer 1" xmlns="http://www.w3.org/2000/svg" viewBox="0 0 80 80"><defs><style>.cls-1{fill:#4e5060;}.cls-2{fill:#f9f9f9;}.cls-3{fill:#e28985;}</style></defs><g id="Layer_58" data-name="Layer 58"><path class="cls-1" d="M59.18,33.37A13,13,0,1,0,70.78,45,13,13,0,0,0,59.18,33.37Z"/><path class="cls-2" d="M57,46.61l-.37-11.23a4.93,4.93,0,0,0-4.92-5H28.61a4.93,4.93,0,0,0-4.93,4.92H21a7.65,7.65,0,0,1,7.64-7.64H51.72a7.64,7.64,0,0,1,7.63,7.64l.37,11.18Z"/><path class="cls-1" d="M23.52,33.37A13,13,0,1,0,35.11,45,13,13,0,0,0,23.52,33.37Z"/><rect class="cls-2" x="26.36" y="26" width="5.33" height="2.6" transform="translate(-7.33 43.59) rotate(-67.39)"/><rect class="cls-3" x="24.37" y="22.84" width="11.29" height="2.7"/><rect class="cls-2" x="22.33" y="45.38" width="22.59" height="2.39"/><path class="cls-2" d="M52,30.42V27.7a2.16,2.16,0,0,0,2.12-2.59,2.22,2.22,0,0,0-2.2-1.73H43.3V20.67h8.52a5,5,0,0,1,5,4.23A4.88,4.88,0,0,1,52,30.42Z"/></g></svg>