<svg id="Layer_1" data-name="Layer 1" xmlns="http://www.w3.org/2000/svg" xmlns:xlink="http://www.w3.org/1999/xlink" viewBox="0 0 80 80"><defs><style>.cls-1{fill:none;}.cls-2{clip-path:url(#clip-path);}.cls-3{fill:#ced1c5;}.cls-4{fill:#e28985;}.cls-5{clip-path:url(#clip-path-2);}.cls-6{fill:#f6c96b;}.cls-7{fill:#4a9ba2;}.cls-8{fill:#1f203f;}.cls-9{fill:#32637b;}.cls-10{fill:#211e22;}.cls-11{fill:#e8edf4;}.cls-12,.cls-15{fill:#6480b7;}.cls-13{fill:#2e3045;}.cls-14{fill:#dda69e;}.cls-15{opacity:0.72;}</style><clipPath id="clip-path"><rect class="cls-1" x="-251.72" y="5" width="70" height="70" rx="14.36"/></clipPath><clipPath id="clip-path-2"><rect class="cls-1" x="5" y="5" width="70" height="70" rx="14.36"/></clipPath></defs><g id="Layer_56" data-name="Layer 56"><g class="cls-2"><polygon class="cls-3" points="3.69 70.71 -244.49 70.71 -243.3 64.2 -241.94 56.77 -240.56 49.2 -235.94 23.9 -232.88 9.29 -7.92 9.29 -4.86 23.9 -0.24 49.2 1.14 56.77 2.5 64.2 3.69 70.71"/><polygon class="cls-4" points="2.5 64.2 -243.3 64.2 -241.94 56.77 1.14 56.77 2.5 64.2"/></g></g><g id="Layer_55" data-name="Layer 55"><g class="cls-5"><rect class="cls-6" x="-38.27" y="17.66" width="111.36" height="46.22"/><rect class="cls-7" x="-38.27" y="43.19" width="111.36" height="3.35"/><rect class="cls-8" x="-4.38" y="22.19" width="18.06" height="41.69"/><rect class="cls-9" x="-38.27" y="60.54" width="111.36" height="3.35"/><circle class="cls-10" cx="50.09" cy="63.89" r="9.8"/><rect class="cls-11" x="-2.37" y="23.69" width="14.04" height="35.22"/><rect class="cls-12" x="17.02" y="22.35" width="15.87" height="18.08"/><rect class="cls-12" x="34.87" y="22.35" width="15.87" height="18.08"/><rect class="cls-12" x="52.73" y="22.35" width="15.87" height="18.07"/><circle class="cls-3" cx="50.09" cy="63.89" r="4.99"/><rect class="cls-10" x="58.09" y="49.31" width="12.47" height="1.12"/><rect class="cls-10" x="58.09" y="51.82" width="12.47" height="1.12"/><rect class="cls-10" x="58.09" y="54.34" width="12.47" height="1.12"/><path class="cls-13" d="M44.46,31l.82,2.43a4.72,4.72,0,0,1,.25,1.82l-.18,3.07-4.31,0,1.15-7.15Z"/><path class="cls-13" d="M39.93,28.46s-.35,1.58-.53,2.1c-.07.23,0,.39.23.4l2.74.08Z"/><circle class="cls-13" cx="42.93" cy="29.43" r="3.14"/><path class="cls-14" d="M46.79,37.06a2.38,2.38,0,0,1-.13.79l-1,2.57H40.83l1.06-3.88a2.48,2.48,0,0,1,2.84-1.92,2.25,2.25,0,0,1,.35.09A2.48,2.48,0,0,1,46.79,37.06Z"/><path class="cls-13" d="M48.28,38.38c0,.51-.24,2-.24,2H38.8a4.39,4.39,0,0,1,.35-2.34c.87-1.89,1.32-3.85,4-4.42a3.28,3.28,0,0,1,1-.07A4.6,4.6,0,0,1,48.28,38.38Z"/><path class="cls-13" d="M47.43,37.8l-.53,2.62H41.79l.37-3.61a2.69,2.69,0,0,1,3.17-2.17,2.81,2.81,0,0,1,.6.19A2.68,2.68,0,0,1,47.43,37.8Z"/><path class="cls-13" d="M47.35,40.42h-5l-.17-3.57a2.69,2.69,0,0,1,2.44-2.76,2.94,2.94,0,0,1,.42,0,2.56,2.56,0,0,1,.73.15A2.69,2.69,0,0,1,47.55,37Z"/><path class="cls-13" d="M47.8,31.1c0-.57-.47-2-.5-2.31s.21-1.09.22-1.45a2.39,2.39,0,0,0-1.65-2.1c-.34-.51-.31-.78-.91-1-1.46-.58-1.61,1-4.4.84-1.4-.08-2,2.21-1,3.37a3.06,3.06,0,0,0,.37.35,2.58,2.58,0,0,0,.91.41,2.35,2.35,0,0,0,1.39.08l.84-.1h0a1.52,1.52,0,0,0,.82,1.8,13.71,13.71,0,0,1-1,1.91l0,0c1.23.94,3.16.54,4.59.75.13,0,.09,0,.21.07C47.68,32.86,47.86,32,47.8,31.1Z"/><path class="cls-13" d="M25.27,23.78l-1,2.38a4.63,4.63,0,0,0-.36,1.8V31l4.3.3-.72-7.2Z"/><path class="cls-13" d="M30.32,23.8l-2.61.87,1.65-2.33h.71a3.22,3.22,0,0,0,.34,1C30.56,23.55,30.51,23.73,30.32,23.8Z"/><path class="cls-13" d="M30,22.34a3.15,3.15,0,0,1-1.86,2.88,2.8,2.8,0,0,1-.93.25,3.13,3.13,0,0,1-3.49-3.13Z"/><path class="cls-13" d="M27.26,25.49l0,0c-.07.17-.37.2-.53.25a10.71,10.71,0,0,1-3.15.21h-.21l-.18.14a.93.93,0,0,1-.71.1,1,1,0,0,1-.55-.42,1,1,0,0,1-.09-.71,5.23,5.23,0,0,1,.48-.87,4,4,0,0,0,.36-.58v0a3.84,3.84,0,0,1-.18-.35,1,1,0,0,1-.1-.71,1.52,1.52,0,0,1,.06-.2h3.47a1.2,1.2,0,0,0,.08.27.82.82,0,0,0,.39.41c.12,0,.19.35.07.43S27,24.8,27.07,25,27.29,25.39,27.26,25.49Z"/><path class="cls-13" d="M30.7,40.42s-.61-8.43-.64-8.92a4.82,4.82,0,0,0-4.58-4.77,4.43,4.43,0,0,0-4.2,4.46c-.13,2.38.18,9.23.18,9.23Z"/><path class="cls-13" d="M54.82,24.56l1,2.38a4.81,4.81,0,0,1,.35,1.8v3.08l-4.3.3.72-7.2Z"/><path class="cls-13" d="M50.15,22.33s-.26,1.6-.4,2.13c-.06.24,0,.39.25.39l2.74-.09Z"/><path class="cls-13" d="M56.07,24.42a3.14,3.14,0,0,1-5.91-2.07h6.08A3.17,3.17,0,0,1,56.07,24.42Z"/><path class="cls-13" d="M49.79,22.34h2.59a1.14,1.14,0,0,0-.09.26l-.26,0a2.28,2.28,0,0,1-1.39,0A2.35,2.35,0,0,1,49.79,22.34Z"/><path class="cls-13" d="M57.86,26.75l-.38,0c-.74-.06-1.47,0-2.2,0-.37,0-.73,0-1.09,0l-.16,0,.1,0-.24,0a4.41,4.41,0,0,1-.55-.15h-.05l-.19-.1a1.28,1.28,0,0,1-.25-.15l0,0a14.66,14.66,0,0,0,.89-2,1.34,1.34,0,0,1-.51-.32,1.07,1.07,0,0,0,.9-1.58h3.15a18.55,18.55,0,0,1,.51,1.79C57.86,25.06,57.73,25.9,57.86,26.75Z"/><path class="cls-13" d="M50.91,40.42l-.14-7.77c0-.13,0-.25,0-.38a4.46,4.46,0,0,1,8.89-.61l.5,8.76Z"/><path class="cls-13" d="M53.25,33.15a1.84,1.84,0,0,1-.26-.29L45.3,22.35h3l8.31,7.51a2.33,2.33,0,0,1-.25,3.42l-.05,0A2.35,2.35,0,0,1,53.25,33.15Z"/><path class="cls-13" d="M27.74,32.37a1.45,1.45,0,0,0,.26-.29l4.89-5V22.61L24.4,29.08a2.34,2.34,0,0,0,.25,3.42l.05,0A2.34,2.34,0,0,0,27.74,32.37Z"/><polygon class="cls-7" points="63.02 43.43 64.72 43.67 64.71 43.71 63.02 43.43"/><path class="cls-13" d="M64.83,30.9l1,2.38a4.63,4.63,0,0,1,.36,1.8v3.08l-4.3.3.72-7.2Z"/><path class="cls-13" d="M60.16,28.67s-.25,1.6-.4,2.13c-.06.24.05.39.26.39l2.74-.09Z"/><circle class="cls-13" cx="63.21" cy="29.46" r="3.14"/><path class="cls-13" d="M68.6,36.42v4H60.21V39c0-.13,0-.25,0-.38a4.74,4.74,0,0,1,2-4l.36-.21a4.32,4.32,0,0,1,2-.52,4.21,4.21,0,0,1,1.43.24,4.42,4.42,0,0,1,2.51,2.24Z"/><path class="cls-13" d="M67.65,36.38a1.73,1.73,0,0,1-.05.45l-.66,3.59H62.62L63,36.19a2.34,2.34,0,0,1,2.77-2.11h.07A2.35,2.35,0,0,1,67.65,36.38Z"/><path class="cls-13" d="M67.84,36.42a1.71,1.71,0,0,1,0,.39l0,.24-.54,3.37H62.91l.12-2,.12-2.1c0-.05,0-.1,0-.16a2.33,2.33,0,0,1,2.63-2h.06l.2,0A2.35,2.35,0,0,1,67.84,36.42Z"/><path class="cls-13" d="M68.6,32.26v4l0,.06a3.39,3.39,0,0,1-.79.72l-.23.14a3.34,3.34,0,0,1-1.37.39.86.86,0,0,1-.23,0,3.32,3.32,0,0,1-2.77-1.48,1,1,0,0,1-.15-.25,3.17,3.17,0,0,1-.41-1.5.37.37,0,0,1,0-.11,3.39,3.39,0,0,1,.45-1.67,3.13,3.13,0,0,1,.5-.65,2.76,2.76,0,0,1-.15-.81v-.05a2.49,2.49,0,0,1,.17-.91h0a1.64,1.64,0,0,1-.2-1.17h0l-.83.14a2.24,2.24,0,0,1-1.38,0,2.49,2.49,0,0,1-.67-.21,2.29,2.29,0,0,1-.27-.14l0,0h0a2.13,2.13,0,0,1-1-2.27,1.89,1.89,0,0,1,1.91-1.41,2,2,0,0,1,.57.13,1.41,1.41,0,0,1,.85-.26,1.44,1.44,0,0,1,.75.2,2.41,2.41,0,0,1,.78-.58c1.53-.58,3.71.64,3.77,2.31a5.82,5.82,0,0,1-.08.72,2.94,2.94,0,0,0,0,.75,1.86,1.86,0,0,0,.1.36h0c.08.29.21.68.33,1.05a7.39,7.39,0,0,1,.21.86,9.08,9.08,0,0,1,0,1.15.75.75,0,0,1,0,.16.12.12,0,0,1,0,0A2.88,2.88,0,0,1,68.6,32.26Z"/><rect class="cls-15" x="17.02" y="22.34" width="15.87" height="18.08"/><rect class="cls-15" x="34.87" y="22.35" width="15.87" height="18.08"/><rect class="cls-15" x="52.72" y="22.34" width="15.87" height="18.08"/><rect class="cls-6" x="50.73" y="17.66" width="1.99" height="25.53"/></g></g></svg>