<svg id="Layer_1" data-name="Layer 1" xmlns="http://www.w3.org/2000/svg" xmlns:xlink="http://www.w3.org/1999/xlink" viewBox="0 0 80 80"><defs><style>.cls-1{fill:none;}.cls-2{clip-path:url(#clip-path);}.cls-3{fill:#ced1c5;}.cls-4{fill:#6480b7;}.cls-5{fill:#e28985;}.cls-6{fill:#4e5060;}.cls-7{fill:#142731;}.cls-8{fill:#30323c;}.cls-12,.cls-9{fill:#e8edf4;}.cls-10{fill:#e2c55e;}.cls-11{fill:#434551;}.cls-12{opacity:0.2;}</style><clipPath id="clip-path"><rect class="cls-1" x="-120.04" y="5" width="70" height="70" rx="14.36"/></clipPath></defs><g id="Layer_56" data-name="Layer 56"><g class="cls-2"><polygon class="cls-3" points="135.37 70.71 -112.8 70.71 -111.61 64.2 -110.26 56.77 -108.87 49.2 -104.26 23.9 -101.19 9.29 123.76 9.29 126.83 23.9 131.45 49.2 132.83 56.77 134.19 64.2 135.37 70.71"/><rect class="cls-4" x="-32.52" y="23.9" width="40.73" height="25.3"/><rect class="cls-4" x="15.31" y="23.9" width="40.73" height="25.3"/><polygon class="cls-5" points="134.19 64.2 -111.61 64.2 -110.26 56.77 132.83 56.77 134.19 64.2"/><rect class="cls-6" x="65.46" y="17.87" width="37.32" height="52.85"/><rect class="cls-4" x="68.03" y="21.46" width="14.54" height="27.74" rx="1.84"/></g></g><g id="car-2" data-name="car"><rect class="cls-7" x="14.42" y="54.32" width="10.43" height="10.43"/><rect class="cls-7" x="54.38" y="54.32" width="10.43" height="10.43"/><rect class="cls-8" x="60.13" y="38.25" width="10.43" height="6.06"/><rect class="cls-8" x="9.43" y="38.25" width="10.43" height="6.06"/><rect class="cls-6" x="12.82" y="45.35" width="53.6" height="13.56"/><polygon class="cls-8" points="63.61 45.51 15.62 45.51 22.06 15.25 57.18 15.25 63.61 45.51"/><polygon class="cls-9" points="19.65 41.98 24.88 18.25 54.36 18.25 59.58 41.98 19.65 41.98"/><rect class="cls-3" x="14.79" y="46.91" width="10.43" height="10.43"/><rect class="cls-10" x="16.29" y="48.41" width="7.44" height="7.44"/><rect class="cls-3" x="54.09" y="46.91" width="10.43" height="10.43"/><rect class="cls-10" x="55.59" y="48.41" width="7.44" height="7.44"/><rect class="cls-8" x="28.67" y="48.41" width="22.66" height="1.53"/><rect class="cls-8" x="28.67" y="51.36" width="22.66" height="1.53"/><path class="cls-11" d="M48.92,42H30.12l2.19-10,.11-.27a3.24,3.24,0,0,1,3-2h8.18a3.23,3.23,0,0,1,3,2l.11.27Z"/><polygon class="cls-11" points="40.9 29.64 40.62 29.92 39.13 31.41 37.65 29.93 37.37 29.65 37.38 29.63 37.88 24.95 40.57 25.03 40.9 29.64"/><rect class="cls-8" x="28.67" y="54.32" width="22.66" height="1.53"/><polygon class="cls-6" points="52.03 34.06 46.74 33.94 47.7 29.09 50.95 29.19 52.03 34.06"/><polygon class="cls-6" points="32.56 34.57 27.83 34.44 29.09 29.61 31.57 29.68 32.56 34.57"/><path class="cls-6" d="M39.22,42H20.88L23,35l.1-.26a3.15,3.15,0,0,1,2.93-2h8a3.15,3.15,0,0,1,2.93,2l.11.26Z"/><path class="cls-6" d="M36.14,42H24.31l1.85-7,.09-.27a2.9,2.9,0,0,1,1.81-1.85,2.17,2.17,0,0,0,4.33,0,2.9,2.9,0,0,1,1.81,1.85l.09.27Z"/><path class="cls-6" d="M59,42H40.61l2.14-7.5.11-.27a3.17,3.17,0,0,1,2.93-2h8a3.15,3.15,0,0,1,2.92,2l.11.27Z"/><path class="cls-6" d="M52.47,22.6A1.33,1.33,0,0,1,53.79,24l-.11,1.59a4.12,4.12,0,0,1-4.1,3.88h-.39a4.1,4.1,0,0,1-4.1-3.88L45,24h0a1.33,1.33,0,0,1,1.33-1.4Z"/><path class="cls-6" d="M55,25a1.55,1.55,0,0,0-.07-.23l0-.12a1.06,1.06,0,0,0,0-.25,1.53,1.53,0,0,0-1.38-2.47,1.61,1.61,0,0,0-.35-1.08,1.42,1.42,0,0,0-1.47-.44,1.41,1.41,0,0,0-1.23-.33,1.5,1.5,0,0,0-.6.26,1.47,1.47,0,0,0-2.32.52,1.47,1.47,0,0,0-2.52.72,1.87,1.87,0,0,0-.45,2.07,1.89,1.89,0,0,0,1.56,1.15,4.81,4.81,0,0,0,1.19-.22,3.26,3.26,0,0,1,1.44.38l1.24.44a1.26,1.26,0,0,1,1-.49,1.41,1.41,0,0,1,1.11,2.24,3.15,3.15,0,0,0,.57.59.94.94,0,0,0,.73.22c.38-.09.5-.44.54-.79,0-.14,0-.27,0-.41s0-.22.1-.3a3,3,0,0,0,.48-.34A1.29,1.29,0,0,0,55,25Z"/><path class="cls-9" d="M49.83,35.82A5.13,5.13,0,0,0,44.7,41a4.93,4.93,0,0,0,.11,1h2.34A2.94,2.94,0,0,1,47,41a2.87,2.87,0,1,1,5.73,0,2.94,2.94,0,0,1-.18,1h2.34A4.34,4.34,0,0,0,55,41,5.13,5.13,0,0,0,49.83,35.82Z"/><path class="cls-8" d="M56.45,42H51.94l.18-.69a1.23,1.23,0,0,1,1.49-.88l1.93.5A1.2,1.2,0,0,1,56.45,42Z"/><path class="cls-8" d="M45.13,40.27h2a1.22,1.22,0,0,1,1.22,1.22V42a0,0,0,0,1,0,0H43.91a0,0,0,0,1,0,0v-.55A1.22,1.22,0,0,1,45.13,40.27Z"/><path class="cls-6" d="M34.72,22.89c.12-1.3-1.94-1.15-3.28-1.15h-3a2.38,2.38,0,0,0-1.69.7l-.37.48a2,2,0,0,0-.24.62,3,3,0,0,0-1.47.32c-1.9.93-2.17,4-.63,5.4a2.84,2.84,0,0,0,3,.28h0a4.66,4.66,0,0,0,3.24,1.25h.4a3.5,3.5,0,0,0,3.73-3.39l0-.44a3.32,3.32,0,0,0-.47-1.9A4.56,4.56,0,0,0,34.72,22.89Z"/><path class="cls-11" d="M43.06,18.25c-.72,0-8.19,0-8.19,0s-.15,1.9-.15,2.63a4.36,4.36,0,0,0,0,.51l.09,1.72A4.11,4.11,0,0,0,38.94,27h.38a4.11,4.11,0,0,0,4.11-3.88l0-.83a6.28,6.28,0,0,1,0-.75,1.11,1.11,0,0,0-.29-.9l1.92-.52S43.62,18.22,43.06,18.25Z"/><polygon class="cls-12" points="19.65 41.98 24.88 18.25 54.36 18.25 59.58 41.98 19.65 41.98"/></g></svg>