<svg id="Layer_1" data-name="Layer 1" xmlns="http://www.w3.org/2000/svg" xmlns:xlink="http://www.w3.org/1999/xlink" viewBox="0 0 80 80"><defs><style>.cls-1{fill:none;}.cls-2{clip-path:url(#clip-path);}.cls-3{fill:#fff;}.cls-4{fill:#4a9ba2;}.cls-5{fill:#6badb3;}.cls-6{fill:#19262f;}.cls-7{fill:#d07976;}.cls-8{fill:#d79997;}.cls-9{fill:#c95e57;}</style><clipPath id="clip-path"><rect class="cls-1" x="5" y="5" width="70" height="70" rx="14.36"/></clipPath></defs><g id="Layer_57" data-name="Layer 57"><g class="cls-2"><g id="VfqD23.tif"><path class="cls-3" d="M38.65,27.68,35.4,33.77A12.6,12.6,0,0,0,34,38.49l-.87,8.22,11.41,2,.07-19.47Z"/><path class="cls-3" d="M51.67,22.93s-.31,4.34-.27,5.81c0,.66-.37,1-.9.86l-7.12-1.92Z"/><circle class="cls-3" cx="43.14" cy="23.55" r="8.45"/><path class="cls-3" d="M69.35,84.16A2.17,2.17,0,0,1,68.64,86l-.77.69,0,0-.07.06h0l-.11.09a2.52,2.52,0,0,1-3.54-.16l-2.52-2.76c-.35-.35-3.52-3.69-5-5.23-2.73-3-9-8.73-10.71-12.46a7.66,7.66,0,0,1-.5-3.41,17.53,17.53,0,0,1,.51-6.52c.32-1,0-3.5.43-4.33.53-1.18,2.6-1,3.64-1.19.35,0,1,0,1.56-.13a1.39,1.39,0,0,1,1.18.44,2.79,2.79,0,0,1,.29.44c.85,2.05.54,8.37.46,9.41a8,8,0,0,0,1.06,4.31l7.58,13.79.09.14L63.28,81l.69-.63a1.47,1.47,0,0,1,2.06.11Z"/><path class="cls-3" d="M69.85,84.87v0a2.15,2.15,0,0,1-.7,1.82l-.77.68,0,0-.06.06-.11-.13-6.25-7,.53-.49.16-.13h0a2.62,2.62,0,0,1,3.5.33l3.19,3.55A2.07,2.07,0,0,1,69.85,84.87Z"/><path class="cls-4" d="M38.25,46.85l6.61,18.74,10.93-3.08L51.15,43.59a6.66,6.66,0,0,0-8.47-5.1h0A6.65,6.65,0,0,0,38.25,46.85Z"/><path class="cls-5" d="M52.56,49.73c0,.39,0,.77,0,1.17V92.14L17.83,99.25l1.74-12,.79-5.41,4.92-34C26.39,40.6,31.8,35.06,39,35.13S52.56,41.07,52.56,49.73Z"/><path class="cls-5" d="M25,46l15,1,1.54-11.57s-4.52-1-6.2-1.33c-5.69-1-8.17,3.57-9.11,7.09Z"/><path class="cls-4" d="M27.77,39.45,22.19,60.88l11.59,3.25s5.07-15.08,6.12-20c.85-3.89-1.85-7.89-6.1-9h0C29.81,34.14,28.78,35.45,27.77,39.45Z"/><path class="cls-3" d="M38.82,89.71a2.12,2.12,0,0,1-1.22,1.52l-.94.43h0l-.08,0h0l-.13.05a2.51,2.51,0,0,1-3.33-1.22l-1.58-3.39c-.22-.43-3-5.54-3.93-7.44-1.71-3.66-5.94-11-6.47-15.11a7.85,7.85,0,0,1,.54-3.41,17.44,17.44,0,0,1,2.46-6c.61-.88,1.1-3.33,1.71-4,.86-1,2.79-.21,3.83,0,.34,0,1,.28,1.52.34a1.4,1.4,0,0,1,1,.77,2.21,2.21,0,0,1,.15.5c.2,2.22-2,8.15-2.39,9.12a7.93,7.93,0,0,0-.29,4.43l3.86,16.4,0,.16L34,84.87l.85-.39a1.47,1.47,0,0,1,1.94.72Z"/><path class="cls-5" d="M26.27,39.57,20.35,60.22l11.71,3.6L39.9,44.17a7.2,7.2,0,0,0-4.71-9.59h0A7.2,7.2,0,0,0,26.27,39.57Z"/><path class="cls-6" d="M54.11,19.22a5,5,0,0,1-1.5,3c-2.37,2.22-6,.52-8.78.34-.56,0-1.12-.2-1.7-.22-1.4-.06-2,.72-1.84,2.09a.57.57,0,0,1,0,.12c.16,1.12-1.55,2.26-1.45,3.37.07.84.3,2.47-.4,3.12-.49.46-1.21.1-1.77,0a14.88,14.88,0,0,0-2.1-.18c-1.13-.07-3.74.27-4.32-.85-.81-1.57,1.27-3.47.78-5.14a7.63,7.63,0,0,1-.19-3.26,20.61,20.61,0,0,1,.83-2.44c.24-.83-.11-1.69,0-2.54C32.29,12.21,38,9.78,42,10.36a9.09,9.09,0,0,1,5.66,3,.47.47,0,0,0,.15.13.51.51,0,0,0,.21,0,7.39,7.39,0,0,1,1.76.14A5.63,5.63,0,0,1,54,17.35,4.35,4.35,0,0,1,54.11,19.22Z"/><path class="cls-7" d="M49.37,10.38h0l-19.58,9.1-.47-1L28.63,17a3.27,3.27,0,0,1,1.59-4.35L43.87,6.33a3.27,3.27,0,0,1,4.35,1.59l.68,1.44Z"/><polygon class="cls-8" points="55.72 15.03 29.21 27.35 29.93 21.89 30.14 20.31 30.15 20.31 49.73 11.21 49.74 11.21 51.07 12.07 55.72 15.03"/><polygon class="cls-9" points="30.14 20.31 30.15 20.31 29.68 19.31 49.27 10.19 49.74 11.21 51.07 12.07 29.93 21.89 30.14 20.31"/></g></g></g></svg>