<svg id="Layer_1" data-name="Layer 1" xmlns="http://www.w3.org/2000/svg" xmlns:xlink="http://www.w3.org/1999/xlink" viewBox="0 0 80 80"><defs><style>.cls-1{fill:none;}.cls-2{clip-path:url(#clip-path);}.cls-3{fill:#ced1c5;}.cls-4{fill:#6480b7;}.cls-5{fill:#e28985;}.cls-6{fill:#4e5060;}</style><clipPath id="clip-path"><rect class="cls-1" x="5" y="5" width="70" height="70" rx="14.36"/></clipPath></defs><g id="Layer_56" data-name="Layer 56"><g class="cls-2"><polygon class="cls-3" points="260.41 70.71 12.24 70.71 13.42 64.2 14.78 56.77 16.16 49.2 20.78 23.9 23.85 9.29 248.8 9.29 251.86 23.9 256.48 49.2 257.87 56.77 259.22 64.2 260.41 70.71"/><path class="cls-4" d="M35.46,26.46V46.64a2.57,2.57,0,0,1-2.57,2.56H16.16l4.62-25.3H32.9A2.56,2.56,0,0,1,35.46,26.46Z"/><polygon class="cls-5" points="259.22 64.2 13.42 64.2 14.78 56.77 257.87 56.77 259.22 64.2"/><rect class="cls-6" x="45.33" y="17.87" width="37.32" height="52.85"/><rect class="cls-4" x="47.9" y="21.17" width="14.54" height="27.74" rx="1.84"/><rect class="cls-4" x="65.54" y="21.17" width="14.54" height="27.74" rx="1.84"/></g></g></svg>