<svg xmlns="http://www.w3.org/2000/svg" viewBox="0 0 80 80"><defs><style>.cls-1{fill:#fff;}.cls-2{fill:#f4c8b0;}.cls-3{fill:#373f51;}.cls-4{fill:#f49076;}</style></defs><title>Drag&amp;amp;Droper_Poster_tiles</title><g id="Layer_74" data-name="Layer 74"><path class="cls-1" d="M59.71,39.16H20.29v-.33a19.71,19.71,0,0,1,39.42,0ZM21,38.51h38.1a19.05,19.05,0,0,0-38.1,0Z"/><path class="cls-2" d="M61.34,39l-3.84,20-.23,1.19a.93.93,0,0,1-.91.75H23.64a.93.93,0,0,1-.91-.75l-.23-1.19L18.66,39a.92.92,0,0,1,.91-1.09H60.43A.92.92,0,0,1,61.34,39Z"/><polygon class="cls-3" points="51.78 37.87 40.86 49.37 28.79 37.9 28.82 37.87 51.78 37.87"/><polygon class="cls-4" points="48.41 37.87 35.56 51.41 21.35 37.91 21.39 37.87 48.41 37.87"/><path class="cls-1" d="M57.5,58.93l-.23,1.19a.93.93,0,0,1-.91.75H23.64a.93.93,0,0,1-.91-.75l-.23-1.19Z"/></g></svg>