<svg xmlns="http://www.w3.org/2000/svg" viewBox="0 0 80 80"><defs><style>.cls-1{fill:#006a66;}.cls-2{fill:#f17300;}.cls-3{fill:#fff;}</style></defs><title>Drag&amp;amp;Droper_Poster_tiles</title><g id="Layer_74" data-name="Layer 74"><polygon class="cls-1" points="56.78 16.87 46.72 25.18 43.46 59.22 41.61 59.05 44.94 24.24 55.61 15.44 56.78 16.87"/><polygon class="cls-2" points="48.71 42.44 46.23 61.37 30.66 61.37 27.84 39.81 48.71 42.44"/><path class="cls-3" d="M46.23,61.89H30.66a.51.51,0,0,1-.52-.46L26.45,33.19a.5.5,0,0,1,.12-.41.52.52,0,0,1,.4-.18h23a.5.5,0,0,1,.4.18.51.51,0,0,1,.13.41l-3.7,28.24A.51.51,0,0,1,46.23,61.89Zm-15.11-1H45.77l3.55-27.19H27.57Z"/></g></svg>