<svg xmlns="http://www.w3.org/2000/svg" viewBox="0 0 80 80"><defs><style>.cls-1{fill:#f17300;}.cls-2{fill:#7b903a;}.cls-3{fill:#ffc127;}.cls-4{fill:#001427;}.cls-5{fill:#fff;}</style></defs><title>Drag&amp;amp;Droper_Poster_tiles</title><g id="Layer_74" data-name="Layer 74"><rect class="cls-1" x="28.1" y="37.95" width="21.9" height="4.14"/><polygon class="cls-2" points="50.85 38.92 45.36 40.84 42.58 38.48 36.23 38.09 32.89 39.1 29.75 38.02 27.24 39.31 27.24 34.78 50.85 34.78 50.85 38.92"/><path class="cls-3" d="M31.91,27.84H46.19a5.66,5.66,0,0,1,5.66,5.66V34.8a1,1,0,0,1-1,1H27.2a1,1,0,0,1-1-1V33.5A5.66,5.66,0,0,1,31.91,27.84Z"/><rect class="cls-4" x="26.65" y="41.26" width="24.81" height="4.11" rx="2.05"/><circle class="cls-4" cx="30.6" cy="30.26" r="0.81"/><circle class="cls-4" cx="34.48" cy="31.77" r="0.81"/><circle class="cls-4" cx="39.05" cy="30.26" r="0.81"/><circle class="cls-4" cx="48.16" cy="32.58" r="0.81"/><circle class="cls-4" cx="42.82" cy="33.38" r="0.81"/><path class="cls-3" d="M26.89,45.27H51.21a.64.64,0,0,1,.64.64v3.58a1.75,1.75,0,0,1-1.75,1.75H28a1.75,1.75,0,0,1-1.75-1.75V45.91A.64.64,0,0,1,26.89,45.27Z"/><polygon class="cls-5" points="58.1 52.16 21.9 52.16 19.93 48.77 60.07 48.77 58.1 52.16"/></g></svg>