<svg xmlns="http://www.w3.org/2000/svg" xmlns:xlink="http://www.w3.org/1999/xlink" viewBox="0 0 80 80"><defs><style>.cls-1{fill:none;}.cls-2{clip-path:url(#clip-path);}.cls-3{fill:#fff;}.cls-4{fill:#001427;}.cls-5{fill:#f49076;}</style><clipPath id="clip-path"><rect class="cls-1" x="5" y="-211.5" width="70" height="70" rx="14.36"/></clipPath></defs><title>Drag&amp;amp;Droper_Poster_tiles</title><g id="hat"><g class="cls-2"><path class="cls-3" d="M41.38-12.87h0a5.52,5.52,0,0,0-5.52,5.53V13l11-.91V-7.34A5.53,5.53,0,0,0,41.38-12.87Z"/><path class="cls-3" d="M65.18-6h0A5.53,5.53,0,0,0,60.53.25l2.71,18.17L74,15.89,71.46-1.38A5.52,5.52,0,0,0,65.18-6Z"/><path class="cls-4" d="M50.79,7.11l-18.57.31L28-29.63a9.6,9.6,0,0,1,9.6-9.59h0a9.6,9.6,0,0,1,9.59,9.59Z"/><path class="cls-4" d="M76.35,10.31l-18.57.31L50.1-35.6a9.59,9.59,0,0,1,9.59-9.6h0a9.6,9.6,0,0,1,9.6,9.6Z"/></g></g><g id="Layer_74" data-name="Layer 74"><path class="cls-3" d="M50.22,72.94a10.22,10.22,0,0,1-9.76-6.07C38.28,61.68,38.86,56,39.37,51c.48-4.7.89-8.76-.95-11.38a.36.36,0,0,1,.59-.41c2,2.83,1.58,7,1.09,11.86s-1.08,10.55,1,15.57,7.71,6.36,12,5.26c3.88-1,7.77-4.33,7.09-10.67a.36.36,0,1,1,.72-.07c.73,6.79-3.46,10.36-7.62,11.44A12.54,12.54,0,0,1,50.22,72.94Z"/><path class="cls-5" d="M38.5,39.34l.63,3.38-6.45.57,0-3.49c-5.18-1.12-9.56-6.3-10.39-13.11-1-8.51,3.84-16.23,10.94-16.79S46.38,16.2,46.7,24.76C47,31.62,43.43,37.43,38.5,39.34Z"/></g></svg>