<svg xmlns="http://www.w3.org/2000/svg" viewBox="0 0 80 80"><defs><style>.cls-1{fill:#f17300;}.cls-2{fill:#fff;}.cls-3{fill:#001427;}</style></defs><title>Drag&amp;amp;Droper_Poster_tiles</title><g id="Layer_74" data-name="Layer 74"><polygon class="cls-1" points="51.96 65.33 27.94 65.33 24.85 26.46 55.06 26.46 51.96 65.33"/><polygon class="cls-1" points="27.94 14.66 51.96 14.66 55.06 26.99 24.85 26.99 27.94 14.66"/><rect class="cls-2" x="22.37" y="24.21" width="35.26" height="5.57"/><rect class="cls-3" x="31.18" y="17.01" width="17.65" height="5.57"/><path class="cls-2" d="M40,52.69a6.79,6.79,0,1,1,6.79-6.79A6.8,6.8,0,0,1,40,52.69Zm0-13.15a6.36,6.36,0,1,0,6.36,6.36A6.37,6.37,0,0,0,40,39.54Z"/></g></svg>