<svg xmlns="http://www.w3.org/2000/svg" xmlns:xlink="http://www.w3.org/1999/xlink" viewBox="0 0 80 80"><defs><style>.cls-1,.cls-10{fill:none;}.cls-2{fill:#fbd87f;}.cls-3{fill:#f78764;}.cls-4{fill:#373f51;}.cls-5{fill:#fff;}.cls-6{clip-path:url(#clip-path);}.cls-7{fill:#81a4cd;}.cls-8{fill:#001427;}.cls-9{fill:#3f6634;}.cls-10{stroke:#3f6634;stroke-miterlimit:10;stroke-width:0.2px;}.cls-11{fill:#f4937a;}.cls-12{fill:#7b903a;}</style><clipPath id="clip-path"><path class="cls-1" d="M46.6,35V22.09a4.53,4.53,0,1,1,9.06,0l4.88,2.59L61,35H46.6Z"/></clipPath></defs><title>Drag&amp;amp;Droper_Poster_tiles</title><g id="Layer_74" data-name="Layer 74"><rect class="cls-2" x="35.17" y="33.73" width="3.73" height="38.33"/><path class="cls-3" d="M27.77,16.44H51a5.75,5.75,0,0,1,5.75,5.75V36.12a0,0,0,0,1,0,0H21a0,0,0,0,1,0,0V23.21A6.77,6.77,0,0,1,27.77,16.44Z"/><path class="cls-2" d="M51.13,16.44h0a5.65,5.65,0,0,1,5.65,5.65v14a0,0,0,0,1,0,0H45.48a0,0,0,0,1,0,0v-14A5.65,5.65,0,0,1,51.13,16.44Z"/><path class="cls-4" d="M46.6,35V22.09a4.53,4.53,0,1,1,9.06,0V35Z"/><polygon class="cls-5" points="43.32 26.11 40.65 26.87 36.24 11.36 31.52 12.7 30.76 10.04 35.49 8.69 38.15 7.93 38.91 10.6 43.32 26.11"/><circle class="cls-4" cx="41.96" cy="26.12" r="2.17"/><rect class="cls-4" x="21" y="34.6" width="24.48" height="1.51"/><g class="cls-6"><rect class="cls-7" x="44.51" y="26.1" width="14.42" height="7.46" transform="translate(-5.07 11.41) rotate(-12.01)"/><polygon class="cls-5" points="45.48 34.97 51.76 29.83 59.54 31.97 45.48 34.97"/><polygon class="cls-8" points="57.99 24.68 52.01 30.77 43.89 27.68 57.99 24.68"/><rect class="cls-5" x="43.32" y="27.15" width="14.42" height="7.46"/><polygon class="cls-8" points="43.32 34.6 50.53 30.88 57.74 34.6 43.32 34.6"/><polygon class="cls-3" points="57.74 27.15 50.53 32.35 43.32 27.15 57.74 27.15"/></g><path class="cls-3" d="M51.13,34.6h0a5.65,5.65,0,0,1,5.65,5.65v8.42a0,0,0,0,1,0,0H45.48a0,0,0,0,1,0,0V40.26A5.65,5.65,0,0,1,51.13,34.6Z" transform="translate(102.27 83.28) rotate(180)"/><polygon class="cls-9" points="28.73 58.76 37.09 68.67 31.63 71.4 28.73 58.76"/><line class="cls-10" x1="28.82" y1="56.18" x2="34.16" y2="68.16"/><path class="cls-11" d="M26.77,54.3a1.24,1.24,0,0,1,1.38.24,1.23,1.23,0,0,1,.69-1.22l1-.46L30.37,54a2.32,2.32,0,0,1-1,3h0s0,0-.07,0l-.07,0h0a2.31,2.31,0,0,1-3-1.17l-.54-1.14Z"/><polygon class="cls-12" points="40.42 65.95 40.51 59.99 36.1 66.42 31.69 59.99 31.78 65.95 28.82 62.27 31.23 72.07 40.98 72.07 43.38 62.27 40.42 65.95"/></g></svg>