<svg xmlns="http://www.w3.org/2000/svg" viewBox="0 0 80 80"><defs><style>.cls-1{fill:none;stroke:#3f6634;stroke-miterlimit:10;stroke-width:0.68px;}.cls-2{fill:#3f6634;}.cls-3{fill:#f4937a;}.cls-4{fill:#001427;}</style></defs><title>Drag&amp;amp;Droper_Poster_tiles</title><g id="wheels"><line class="cls-1" x1="19.85" y1="20.02" x2="19.85" y2="38.81"/><line class="cls-1" x1="43.76" y1="35.85" x2="55.13" y2="47.1"/><rect class="cls-2" x="59.14" y="26.39" width="2.88" height="14.87" rx="1.25"/><path class="cls-2" d="M41.76,21.79H17.67a1.23,1.23,0,0,1-1.23-1.23v-2.3A1.23,1.23,0,0,1,17.67,17H39.76a1.23,1.23,0,0,1,1,.54l2,2.31A1.22,1.22,0,0,1,41.76,21.79Z"/><rect class="cls-3" x="31.15" y="49.2" width="23.49" height="6.15"/><rect class="cls-3" x="25.12" y="29.23" width="3.41" height="15.11" rx="1.25"/><path class="cls-4" d="M37.39,52.35a14.82,14.82,0,0,1-.31,3H33.7A14.58,14.58,0,0,0,32,49.91a14.8,14.8,0,0,0-13-7.7c-.36,0-.59.45-.95.48a16.2,16.2,0,0,0-3.54,1.12V40a14.56,14.56,0,0,1,3.41-1.66,15,15,0,0,1,4.67-.74A14.79,14.79,0,0,1,37.18,49.91,14.1,14.1,0,0,1,37.39,52.35Z"/><path class="cls-4" d="M37.21,42.91H18.48a1.23,1.23,0,0,1-1.23-1.23V37.47h18a1.23,1.23,0,0,1,1,.54l2,3A1.23,1.23,0,0,1,37.21,42.91Z"/><path class="cls-4" d="M17.92,33.21V44.33H14.51V33.21a.84.84,0,0,1,.84-.84h1.73A.83.83,0,0,1,17.92,33.21Z"/><path class="cls-4" d="M41.71,40.73l-.63-.27a1.13,1.13,0,0,1-.4-1.52l3-7.18A1.13,1.13,0,0,1,45,31l.64.27a1.13,1.13,0,0,1,.39,1.52l-3,7.18A1.13,1.13,0,0,1,41.71,40.73Z"/><path class="cls-4" d="M67.31,50.15H52.84V39a1.53,1.53,0,0,1,1.53-1.53h8.88a4.06,4.06,0,0,1,4.06,4.06Z"/><path class="cls-2" d="M34.54,55V49.69a.41.41,0,0,0-.42-.41H33.4A.41.41,0,0,1,33,49a10.47,10.47,0,0,0-.68-1.62.43.43,0,0,1,.08-.49l.51-.51a.41.41,0,0,0,0-.58L29.16,42a.42.42,0,0,0-.59,0l-.51.51a.41.41,0,0,1-.48.07A10.53,10.53,0,0,0,26,41.93a.43.43,0,0,1-.29-.4v-.72a.41.41,0,0,0-.41-.41H19.93a.41.41,0,0,0-.42.41v.72a.43.43,0,0,1-.29.4,10.53,10.53,0,0,0-1.63.67.41.41,0,0,1-.48-.07L16.6,42A.42.42,0,0,0,16,42l-3.76,3.76a.41.41,0,0,0,0,.58l.51.51a.43.43,0,0,1,.08.49A11.55,11.55,0,0,0,12.16,49a.41.41,0,0,1-.39.3h-.72a.41.41,0,0,0-.42.41V55a.41.41,0,0,0,.42.41h.72a.41.41,0,0,1,.39.3,11.55,11.55,0,0,0,.68,1.62.43.43,0,0,1-.08.49l-.51.51a.41.41,0,0,0,0,.58L16,62.68a.42.42,0,0,0,.59,0l.51-.51a.41.41,0,0,1,.48-.07,11.62,11.62,0,0,0,1.63.67.42.42,0,0,1,.29.4v.72a.41.41,0,0,0,.42.41h5.32a.41.41,0,0,0,.41-.41v-.72a.42.42,0,0,1,.29-.4,11.62,11.62,0,0,0,1.63-.67.41.41,0,0,1,.48.07l.51.51a.42.42,0,0,0,.59,0l3.76-3.76a.41.41,0,0,0,0-.58l-.51-.51a.43.43,0,0,1-.08-.49A10.47,10.47,0,0,0,33,55.72a.41.41,0,0,1,.39-.3h.72A.41.41,0,0,0,34.54,55Z"/><circle class="cls-3" cx="22.59" cy="52.35" r="4.66"/><path class="cls-2" d="M69,56.77V52.85a.35.35,0,0,0-.35-.34H68.2a.35.35,0,0,1-.33-.24,7.55,7.55,0,0,0-.48-1.17.35.35,0,0,1,.06-.41l.34-.34a.34.34,0,0,0,0-.48L65,47.1a.34.34,0,0,0-.49,0l-.34.34a.35.35,0,0,1-.4.06A9.3,9.3,0,0,0,62.62,47a.33.33,0,0,1-.24-.32V46.2a.35.35,0,0,0-.35-.34H58.12a.35.35,0,0,0-.35.34v.49a.33.33,0,0,1-.24.32,8.72,8.72,0,0,0-1.17.49.35.35,0,0,1-.4-.06l-.34-.34a.34.34,0,0,0-.49,0l-2.77,2.77a.33.33,0,0,0,0,.48l.34.34a.35.35,0,0,1,.06.41,7.55,7.55,0,0,0-.48,1.17.35.35,0,0,1-.33.24h-.48a.35.35,0,0,0-.35.34v3.92a.35.35,0,0,0,.35.35H52a.34.34,0,0,1,.33.24,8.46,8.46,0,0,0,.48,1.17.33.33,0,0,1-.06.4l-.34.34a.34.34,0,0,0,0,.49l2.77,2.77a.36.36,0,0,0,.49,0l.34-.34a.33.33,0,0,1,.4-.06,7.55,7.55,0,0,0,1.17.48.35.35,0,0,1,.24.33v.48a.35.35,0,0,0,.35.35H62a.35.35,0,0,0,.35-.35v-.48a.35.35,0,0,1,.24-.33,8,8,0,0,0,1.17-.48.33.33,0,0,1,.4.06l.34.34a.36.36,0,0,0,.49,0l2.77-2.77a.36.36,0,0,0,0-.49l-.34-.34a.33.33,0,0,1-.06-.4,8.46,8.46,0,0,0,.48-1.17.34.34,0,0,1,.33-.24h.48A.35.35,0,0,0,69,56.77Z"/><circle class="cls-3" cx="60.07" cy="54.81" r="3"/></g></svg>