<svg xmlns="http://www.w3.org/2000/svg" xmlns:xlink="http://www.w3.org/1999/xlink" viewBox="0 0 80 80"><defs><style>.cls-1,.cls-6{fill:none;}.cls-2{clip-path:url(#clip-path);}.cls-3{fill:#3f6634;}.cls-4{fill:#001427;}.cls-5{fill:#f59981;}.cls-6{stroke:#fff;stroke-miterlimit:10;stroke-width:0.96px;}.cls-7{fill:#fff;}.cls-8{fill:#f49076;}.cls-9{fill:#fbd87f;}</style><clipPath id="clip-path"><rect class="cls-1" x="5" y="-109.73" width="70" height="70" rx="14.36"/></clipPath></defs><title>Drag&amp;amp;Droper_Poster_tiles</title><g id="hat"><g class="cls-2"><polygon class="cls-3" points="5.87 0.1 5.77 3.29 -35.3 7.54 -35.27 4.36 5.87 0.1"/><path class="cls-4" d="M50.79,108.88l-18.57.31L28,72.15a9.6,9.6,0,0,1,9.6-9.6h0a9.6,9.6,0,0,1,9.59,9.6Z"/><path class="cls-4" d="M37.45,37.34l26.32-7.76L46.43,75.09a9.59,9.59,0,0,1-12.57,5.1h0C29,78.12,27,72.61,28.76,67.61,31.39,60.19,37.45,37.34,37.45,37.34Z"/><circle class="cls-4" cx="37.67" cy="71.79" r="7.3"/><path class="cls-4" d="M76.35,112.08l-18.57.31L50.1,66.17a9.59,9.59,0,0,1,9.59-9.59h0a9.59,9.59,0,0,1,9.6,9.59Z"/><path class="cls-4" d="M59.55,31.37l10.07-3a8.4,8.4,0,0,1,10.22,11L68.53,69.11A9.59,9.59,0,0,1,56,74.21h0c-4.88-2.07-6.87-7.58-5.1-12.57C53.48,54.21,59.55,31.37,59.55,31.37Z"/><circle class="cls-4" cx="59.77" cy="65.81" r="7.3"/><path class="cls-5" d="M23.19,33.74,31-59,51-71.28a3.67,3.67,0,0,1,5.45,2.13L88.74,34.68a5.67,5.67,0,0,1-5.67,7.21L28.63,39.83A5.67,5.67,0,0,1,23.19,33.74Z"/><path class="cls-6" d="M3.6,3.2c9.2,14.42-4.16,49.45,8.82,64.32C24.05,80.84,63.91,69.19,62,37.12,60.08,6.25,72.47,1.16,82.58-2.51"/><rect class="cls-7" x="67.36" y="-68.39" width="23.67" height="72.29" rx="5.86" transform="translate(11.75 20.32) rotate(-15.77)"/><path class="cls-5" d="M-7.07-3.26H8.45A2.81,2.81,0,0,1,11.26-.45V2.17a0,0,0,0,1,0,0H-3.44A3.63,3.63,0,0,1-7.07-1.46v-1.8A0,0,0,0,1-7.07-3.26Z" transform="translate(0.51 0.93) rotate(-28.42)"/><path class="cls-5" d="M-.41.48h14a0,0,0,0,1,0,0V5.92a0,0,0,0,1,0,0H4.42A4.83,4.83,0,0,1-.41,1.09V.48a0,0,0,0,1,0,0Z" transform="translate(-0.73 3.52) rotate(-28.42)"/></g></g><g id="Layer_74" data-name="Layer 74"><path class="cls-7" d="M53.72,40a23.51,23.51,0,0,1-36.63,0,23.48,23.48,0,0,1,36.63,0Z"/><path class="cls-8" d="M53.72,40a23.51,23.51,0,0,1-36.63,0,23.48,23.48,0,0,1,36.63,0Z"/><path class="cls-7" d="M27.27,32.68V47.34A23.53,23.53,0,0,1,17.09,40,23.21,23.21,0,0,1,27.27,32.68Z"/><polygon class="cls-9" points="62.91 47.82 50.63 43.17 50.63 36.83 62.91 32.18 62.91 47.82"/></g></svg>