<svg xmlns="http://www.w3.org/2000/svg" viewBox="0 0 80 80"><defs><style>.cls-1{fill:#fff;}.cls-2{fill:#81a4cd;}.cls-3{fill:#f78764;}.cls-4{fill:#ffc127;}</style></defs><title>Drag&amp;amp;Droper_Poster_tiles</title><g id="Layer_74" data-name="Layer 74"><path class="cls-1" d="M53.26,58.57a8.32,8.32,0,0,1-8.5,2.91l-.39-.11a8.33,8.33,0,0,1-2.51-1.22l-10.2-7.38-5.57-4a1.83,1.83,0,0,1-.38-2.62l4.48-5.62,4.64-5.82a.14.14,0,0,1,.19,0l8.36,6,8.25,6a8.32,8.32,0,0,1,1.63,11.94Z"/><path class="cls-2" d="M47.7,23,43.38,40.68,33,44.41l-6.66,2.38A1,1,0,0,1,25,45.64L31.49,19Z"/><rect class="cls-3" x="30.87" y="20.96" width="16.69" height="3.24" transform="translate(6.47 -8.65) rotate(13.71)"/><path class="cls-4" d="M33.21,49.51a8.79,8.79,0,0,1-1.55,3.26l-5.49-4A3,3,0,0,1,25,45.64l1.68-6.88a8.83,8.83,0,0,1,3.51,1.73A9,9,0,0,1,33,44.41,8.81,8.81,0,0,1,33.21,49.51Z"/><path class="cls-3" d="M53.26,58.57a8.33,8.33,0,0,1-8.88,2.81h0a8.93,8.93,0,0,1,8.93-8.6,8,8,0,0,1,1.77.19A8.24,8.24,0,0,1,53.26,58.57Z"/></g></svg>