<svg xmlns="http://www.w3.org/2000/svg" xmlns:xlink="http://www.w3.org/1999/xlink" viewBox="0 0 80 80"><defs><style>.cls-1,.cls-9{fill:none;}.cls-2{clip-path:url(#clip-path);}.cls-3{fill:#fff;}.cls-4{fill:#f49076;}.cls-5{fill:#f59981;}.cls-6{fill:#fbd87f;}.cls-7{fill:#001427;}.cls-8{fill:#f17300;}.cls-9{stroke:#f17300;stroke-miterlimit:10;stroke-width:0.96px;}</style><clipPath id="clip-path"><rect class="cls-1" x="5" y="5" width="70" height="70" rx="14.36"/></clipPath></defs><title>Drag&amp;amp;Droper_Poster_tiles</title><g id="hat"><g class="cls-2"><rect class="cls-3" x="26.94" y="46.44" width="33.61" height="12.29" transform="translate(18.2 116.04) rotate(-118.32)"/><path class="cls-3" d="M17.74,34A90.38,90.38,0,0,1,19.92,43a1.19,1.19,0,0,0,1.67,1.08l10.62-5.18Z"/><circle class="cls-3" cx="31.13" cy="31.94" r="13.54"/><path class="cls-4" d="M59.4,73.11S49.64,83,46.6,86.22c-3.29,3.49-57.25,28.26-57.25,28.26l-6.7-11.43L21.85,83,43,49.7Z"/><path class="cls-5" d="M23.19,148.47,31,55.76,51,43.45a3.68,3.68,0,0,1,5.45,2.12L88.74,149.41a5.67,5.67,0,0,1-5.67,7.21l-54.44-2.07A5.66,5.66,0,0,1,23.19,148.47Z"/><path class="cls-6" d="M45.92,31.61c-.88-2.16-2.19-4.18-3.26-6.24S41,20.88,38.35,20.72c-2.19-.13-4.7.74-6.82,1.25a44.38,44.38,0,0,0-9.44,3.51,17.38,17.38,0,0,0-3.85,2.6c-1.13,1-2.54,1.39-3.62,2.44A1.82,1.82,0,0,0,15,33.3,6.63,6.63,0,0,0,15.6,35a1.65,1.65,0,0,0,1.85.84c2.91-1.18,5.87-2.23,8.78-3.4a39.22,39.22,0,0,0,4-1.75,4.92,4.92,0,0,1,1.48-.75c.47,0,.66.27.95.68,1.29,1.8,2,4,4.23,4.65,2.09.59,4.21-.32,6.31-.15a3.11,3.11,0,0,0,2.38-.45C46.5,33.85,46.34,32.65,45.92,31.61Z"/><rect class="cls-3" x="67.36" y="46.33" width="23.67" height="72.29" rx="5.86" transform="translate(-19.44 24.64) rotate(-15.77)"/><path class="cls-7" d="M66.71,41.5h3.61a2.22,2.22,0,0,1,2.22,2.22v4.09a0,0,0,0,1,0,0h-8a0,0,0,0,1,0,0V43.72A2.22,2.22,0,0,1,66.71,41.5Z" transform="translate(-9.56 20.31) rotate(-15.77)"/><rect class="cls-8" x="61.1" y="59.52" width="23.67" height="1.58" rx="0.79" transform="translate(-13.65 22.1) rotate(-15.77)"/><polygon class="cls-9" points="54.07 47.46 15.83 64.25 15.83 26.63 39.64 19.05 54.07 47.46"/><path class="cls-7" d="M43.09,24.35,13.82,35.44a1.77,1.77,0,0,1-2.41-1.59l-.18-5.41a6.25,6.25,0,0,1,2.22-5l-.9-2.55A4.07,4.07,0,0,1,15,15.76l13.73-5.21a4.07,4.07,0,0,1,5.17,2.16l1,2.28A4.2,4.2,0,0,1,40,17.17l3.7,5.41A1.19,1.19,0,0,1,43.09,24.35Z"/></g></g></svg>