<svg xmlns="http://www.w3.org/2000/svg" viewBox="0 0 80 80"><defs><style>.cls-1{fill:#f89170;}.cls-2{fill:#ffc127;}.cls-3{fill:none;stroke:#fff;stroke-miterlimit:10;stroke-width:0.46px;}.cls-4{fill:#fff;}</style></defs><title>Drag&amp;amp;Droper_Poster_tiles-06</title><g id="chemical_sticker" data-name="chemical sticker"><path class="cls-1" d="M39.63,28.13,26.91,26.87V22.15a1.55,1.55,0,0,0-1.55-1.55H20.89a1.56,1.56,0,0,0-1.56,1.55v4l-3,4.86V58.9a1.83,1.83,0,0,0,1.83,1.83H39a1.84,1.84,0,0,0,1.84-1.83V29.46A1.34,1.34,0,0,0,39.63,28.13ZM38.34,33.5a.76.76,0,0,1-.81.68l-9.75-.88a.74.74,0,0,1-.67-.81l.22-2.5a.74.74,0,0,1,.81-.67l9.75.87a.74.74,0,0,1,.67.81Z"/><path class="cls-2" d="M55.1,29.92l-.78-.52a.9.9,0,0,1-.39-.72V21.42h2.52V29.2A.86.86,0,0,1,55.1,29.92Z"/><path class="cls-2" d="M51.82,31.06V24.77H61V20.66a1.39,1.39,0,0,0-1.39-1.39H43.55v4.11a1.39,1.39,0,0,0,1.39,1.39h.65V58.6a2.13,2.13,0,0,0,2.13,2.13H61.51a2.13,2.13,0,0,0,2.13-2.13V47.7c0-4.44-1.34-8.27-4.63-11.12C57.46,35.24,51.82,31.06,51.82,31.06Z"/><rect class="cls-3" x="49.16" y="43.76" width="11.33" height="7.73"/><rect class="cls-4" x="20.73" y="39.44" width="15.74" height="14.73"/></g></svg>