<svg xmlns="http://www.w3.org/2000/svg" viewBox="0 0 80 80"><defs><style>.cls-1{fill:#f17300;}.cls-2{fill:#f78764;}.cls-3{fill:#005d57;}.cls-4{fill:#fff;}</style></defs><title>Drag&amp;amp;Droper_Poster_tiles</title><g id="duck_2" data-name="duck 2"><path class="cls-1" d="M62.59,32.42a20.63,20.63,0,0,1-40.68,6.94Z"/><path class="cls-2" d="M17.61,33.17H27.86L25.23,24s-5.69,5.57-8,7.71C16.49,32.42,16.79,33.17,17.61,33.17Z"/><path class="cls-3" d="M29.68,22.61h0a7.76,7.76,0,0,1,7.76,7.76V47.51a0,0,0,0,1,0,0H30a8.05,8.05,0,0,1-8.05-8.05V30.37a7.76,7.76,0,0,1,7.76-7.76Z"/><path class="cls-4" d="M63.18,39.35a20.58,20.58,0,0,1-10.62,18c-2.92-.2-6.41-.32-10.16-.32s-7,.11-9.9.31A20.62,20.62,0,0,1,21.93,40c0-.2,0-.41,0-.63Z"/></g></svg>