<svg xmlns="http://www.w3.org/2000/svg" viewBox="0 0 80 80"><defs><style>.cls-1{fill:#fff;}.cls-2{fill:#373f51;}</style></defs><title>Drag&amp;amp;Droper_Poster_tiles</title><g id="egg"><path class="cls-1" d="M52.23,40.84A25.33,25.33,0,0,1,51.9,45C49.6,59.22,29.3,59.22,27,45a25.61,25.61,0,0,1,8-23,6.59,6.59,0,0,1,8.89,0A25.5,25.5,0,0,1,52.23,40.84Z"/><path class="cls-2" d="M30.08,52.7H54.26a0,0,0,0,1,0,0v2.43a5.45,5.45,0,0,1-5.45,5.45H24.63a0,0,0,0,1,0,0V58.15a5.45,5.45,0,0,1,5.45-5.45Z"/></g></svg>