<svg xmlns="http://www.w3.org/2000/svg" viewBox="0 0 80 80"><defs><style>.cls-1{fill:#dd7357;}.cls-2{fill:#4c4e67;}</style></defs><g id="Layer_93" data-name="Layer 93"><path class="cls-1" d="M60.11,62.51h0a2.81,2.81,0,0,0-.82-.12,2.73,2.73,0,0,0-1.71.57l-.51-3a.41.41,0,0,0,0-.15L52.81,35.18l-4.16-24.3A1.28,1.28,0,0,1,49.7,9.4a.82.82,0,0,1,.22,0,1.26,1.26,0,0,1,1.26,1.07l4.17,24.3L59.6,59.56Z"/><path class="cls-2" d="M20.58,64H47.43a1.2,1.2,0,0,1,1.2,1.2h0a1.2,1.2,0,0,1-1.2,1.2H20.58a1.2,1.2,0,1,1,0-2.4Z"/><path class="cls-2" d="M46.9,64.37,56.57,54.2a1.19,1.19,0,0,1,1.69,0h0a1.19,1.19,0,0,1,0,1.69L48.6,66.07a1.2,1.2,0,0,1-1.7-1.7Z"/><path class="cls-2" d="M49.83,9.3l7-.37a1.2,1.2,0,0,1,1.2,1.2h0a1.19,1.19,0,0,1-1.2,1.2l-7,.36a1.2,1.2,0,1,1,0-2.39Z"/><path class="cls-2" d="M58,10.32l-.6,4.28a1.19,1.19,0,0,1-1.37,1h0a1.19,1.19,0,0,1-1-1.37l.59-4.28a1.2,1.2,0,0,1,2.37.38Z"/><path class="cls-2" d="M59.06,65.31h0a1.28,1.28,0,0,1-1.26-1.07l-5-29.06a1.3,1.3,0,0,1,1-1.48.86.86,0,0,1,.23,0,1.28,1.28,0,0,1,1.26,1.07l5,29.06A1.28,1.28,0,0,1,59.06,65.31Z"/><path class="cls-1" d="M59.6,59.56h-.32A5.75,5.75,0,0,0,53.66,64a6.15,6.15,0,0,0-.15,1.29,5.88,5.88,0,0,0,.11,1.11,5.76,5.76,0,1,0,6-6.86Zm-.32,8.65a2.9,2.9,0,0,1-2.92-2.9A2.86,2.86,0,0,1,57.57,63a2.73,2.73,0,0,1,1.71-.57,2.81,2.81,0,0,1,.82.12h0a2.91,2.91,0,0,1-.83,5.7Z"/><path class="cls-1" d="M20.72,59.55a5.76,5.76,0,1,0,5.77,5.76A5.75,5.75,0,0,0,20.72,59.55Zm0,8.67a2.92,2.92,0,1,1,2.92-2.91A2.91,2.91,0,0,1,20.72,68.22Z"/></g></svg>