<svg xmlns="http://www.w3.org/2000/svg" viewBox="0 0 80 80"><defs><style>.cls-1{fill:#eabb59;}.cls-2{fill:#c4aea8;}.cls-3{fill:#0c2732;}.cls-4{fill:#dd7357;}</style></defs><g id="Layer_93" data-name="Layer 93"><path class="cls-1" d="M52.84,22.5h7.08a2.77,2.77,0,0,1,2.77,2.77v0a0,0,0,0,1,0,0H52.84a0,0,0,0,1,0,0V22.5A0,0,0,0,1,52.84,22.5Z"/><path class="cls-2" d="M55.43,36v9.4a7.92,7.92,0,0,1-7.91,7.92H17.31l11-8.28,21.89-16.5A7.91,7.91,0,0,1,55.43,36Z"/><polygon class="cls-1" points="28.28 45.06 28.28 53.34 17.31 53.34 28.28 45.06"/><path class="cls-3" d="M45.46,39.17v4.55a6.16,6.16,0,0,1-6.16,6.17H21.86L39.75,36.4a3.56,3.56,0,0,1,5.71,2.7Z"/><path class="cls-2" d="M49.34,16.45h0a6.09,6.09,0,0,1,6.09,6.09v12.6a2.34,2.34,0,0,1-2.34,2.34H46.82a3.58,3.58,0,0,1-3.58-3.58V22.55a6.09,6.09,0,0,1,6.09-6.09Z"/><rect class="cls-4" x="45.29" y="53.33" width="1.13" height="13"/><rect class="cls-4" x="40.77" y="53.33" width="1.13" height="13"/><polygon class="cls-3" points="45.85 62.24 43.49 66.33 48.21 66.33 45.85 62.24"/><polygon class="cls-3" points="41.33 62.24 38.97 66.33 43.69 66.33 41.33 62.24"/><circle class="cls-3" cx="50.79" cy="21.4" r="1.1"/></g></svg>