<svg xmlns="http://www.w3.org/2000/svg" viewBox="0 0 80 80"><defs><style>.cls-1{fill:#dd7357;}.cls-2{fill:#eabb59;}.cls-3{fill:#c4aea8;}.cls-4{fill:#4c4e67;}</style></defs><g id="Layer_93" data-name="Layer 93"><polygon class="cls-1" points="59.44 46.69 22.47 51.84 10.28 28.85 67.58 28.85 59.44 46.69"/><rect class="cls-2" x="8.47" y="28.73" width="59.51" height="1.44" rx="0.72"/><polygon class="cls-3" points="63.17 45.78 63.33 47.21 22.03 52.42 21.86 51 61.45 46 67.05 34.7 68.33 35.35 63.17 45.78"/><path class="cls-3" d="M47.52,48.32,45.28,59.67a.72.72,0,0,1-.75.58l-.37,0a.71.71,0,0,1-.62-.43L38.93,49.31l1.35-.5,3.94,8.86,1.86-9.43Z"/><circle class="cls-4" cx="17" cy="52.98" r="6.72"/><circle class="cls-3" cx="17" cy="52.98" r="3.57"/><rect class="cls-2" x="66.32" y="34.5" width="5.21" height="1.44" rx="0.72"/></g></svg>