<svg xmlns="http://www.w3.org/2000/svg" viewBox="0 0 80 80"><defs><style>.cls-1{fill:#c4aea8;}.cls-2{fill:#eabb59;}.cls-3{fill:#dd7357;}.cls-4{fill:#4c4e67;}</style></defs><g id="Layer_93" data-name="Layer 93"><circle class="cls-1" cx="29.81" cy="26.25" r="4.66"/><circle class="cls-1" cx="34.56" cy="22.59" r="4.66"/><circle class="cls-1" cx="33.35" cy="20.07" r="4.66"/><circle class="cls-1" cx="41.28" cy="24.35" r="4.66"/><circle class="cls-1" cx="46.01" cy="21" r="4.66"/><circle class="cls-1" cx="50.54" cy="26.73" r="4.66"/><circle class="cls-1" cx="40.5" cy="16.91" r="4.66"/><polygon class="cls-2" points="56.02 26.23 50.84 68.01 29.29 68.01 24.11 26.23 56.02 26.23"/><polygon class="cls-3" points="30.91 68.01 29.29 68.01 24.11 27.57 28.3 27.57 30.91 68.01"/><polygon class="cls-3" points="38.66 68.01 33.74 68.01 31.93 27.57 38.26 27.57 38.66 68.01"/><polygon class="cls-3" points="48.2 27.57 46.38 68.01 41.48 68.01 41.87 27.57 48.2 27.57"/><polygon class="cls-3" points="56.02 27.57 50.84 68.01 49.2 68.01 51.81 27.57 56.02 27.57"/><circle class="cls-3" cx="35.1" cy="27.8" r="3.16"/><circle class="cls-3" cx="45.03" cy="27.8" r="3.16"/><path class="cls-3" d="M56.37,25l-.76,5.83a3.64,3.64,0,0,1-.68.07,3.13,3.13,0,0,1,0-6.25A3.16,3.16,0,0,1,56.37,25Z"/><path class="cls-3" d="M28.34,27.78a3.15,3.15,0,0,1-3.15,3.14,3,3,0,0,1-.67-.07l-.89-5.79a3,3,0,0,1,1.56-.42A3.15,3.15,0,0,1,28.34,27.78Z"/><polygon class="cls-4" points="48.75 45.85 31.38 45.85 30.4 38.84 49.73 38.84 48.75 45.85"/></g></svg>