<?xml version="1.0" encoding="utf-8"?>
<!-- Generator: Adobe Illustrator 25.3.1, SVG Export Plug-In . SVG Version: 6.00 Build 0)  -->
<svg version="1.1" xmlns="http://www.w3.org/2000/svg" xmlns:xlink="http://www.w3.org/1999/xlink" x="0px" y="0px"
	 viewBox="0 0 80 80" style="enable-background:new 0 0 80 80;" xml:space="preserve">
<style type="text/css">
	.st0{fill:#DD7357;}
	.st1{fill:none;stroke:#ECECED;stroke-width:2.7853;stroke-linecap:round;stroke-linejoin:round;}
	.st2{fill:none;stroke:#ECECED;stroke-width:2.7853;stroke-linecap:round;stroke-linejoin:round;stroke-dasharray:0,8.3301;}
	.st3{fill:#203F54;}
	.st4{fill:#99CAED;}
	.st5{fill:#C3DDF3;}
	.st6{fill:#EFF2FA;}
	.st7{fill:#DEE9F7;}
	.st8{fill:#A9D0EF;}
	.st9{fill:#8FA38C;}
	.st10{fill:#4C4E67;}
	.st11{fill:#A4BBA1;}
	.st12{fill:#0C2732;}
	.st13{fill:#EABB59;}
	.st14{fill:none;stroke:#010101;stroke-linecap:round;stroke-linejoin:round;stroke-miterlimit:10;}
	.st15{fill:#C4AEA8;}
	.st16{fill:#0C171F;}
	.st17{fill:#010101;}
	.st18{fill:#ECECED;}
	.st19{fill:#9D9A9A;}
	.st20{fill:none;stroke:#F2F2F2;stroke-linecap:round;stroke-linejoin:round;stroke-miterlimit:10;}
	.st21{fill:none;stroke:#A4BBA1;stroke-miterlimit:10;}
	.st22{fill:#70A6CE;}
	.st23{fill:#3D2D33;}
	.st24{fill:#FFFFFF;}
	.st25{fill:#0C2128;}
	.st26{fill:#F6F6F6;}
	.st27{fill:#91C2DB;}
	.st28{fill:none;stroke:#ECECED;stroke-width:0.4587;stroke-miterlimit:10;}
	.st29{fill:none;stroke:#ECECED;stroke-width:0.9836;stroke-miterlimit:10;}
	.st30{display:none;fill:none;stroke:#FF0005;stroke-width:0.75;stroke-miterlimit:10;}
	.st31{display:none;fill:#DEE7F1;}
	.st32{display:none;fill:#FFEE00;}
	.st33{fill:none;stroke:#ECECED;stroke-width:0.7374;stroke-miterlimit:10;}
	.st34{clip-path:url(#SVGID_2_);}
	.st35{fill:none;stroke:#A4BBA1;stroke-width:0.736;stroke-miterlimit:10;}
</style>
<g id="background_1_">
</g>
<g id="zigzag">
</g>
<g id="left_mountain_2_1_">
</g>
<g id="left_mountain_1_">
</g>
<g id="ice_4">
</g>
<g id="ice_3">
</g>
<g id="ice_water">
</g>
<g id="ice_2">
</g>
<g id="sea_water_1_">
</g>
<g id="ice_1">
</g>
<g id="melted_ice">
</g>
<g id="tale">
</g>
<g id="bear_foot_3_">
</g>
<g id="bear_body_3_">
</g>
<g id="leg_4_">
</g>
<g id="left_ear_1_">
</g>
<g id="leg_3_">
</g>
<g id="right_ear_1_">
</g>
<g id="head_1_">
</g>
<g id="nose_1_">
</g>
<g id="bear_foot_2_">
</g>
<g id="ice_mountain">
</g>
<g id="leaf">
</g>
<g id="bear_body_2_">
</g>
<g id="nose">
</g>
<g id="bear_foot_1_">
</g>
<g id="bear_body_1_">
</g>
<g id="bear_foot">
</g>
<g id="leaf_2_1_">
</g>
<g id="ice_part_3">
</g>
<g id="ice_part_2">
</g>
<g id="ice_part">
</g>
<g id="background_part_2_">
</g>
<g id="containers_1_">
	<g id="containers">
	</g>
</g>
<g id="boat_1_">
</g>
<g id="factory_part">
</g>
<g id="tube_2">
</g>
<g id="tube">
</g>
<g id="factory_2">
</g>
<g id="factory">
</g>
<g id="door">
</g>
<g id="window_factory_2">
</g>
<g id="window_factory">
</g>
<g id="factory_window">
</g>
<g id="black_cloud_1_">
</g>
<g id="black_cloud">
</g>
<g id="element">
</g>
<g id="green_4_">
</g>
<g id="background_part_1_">
</g>
<g id="factory_ground">
</g>
<g id="stair">
</g>
<g id="green_3_">
</g>
<g id="road_part_1_">
	<g id="road_part">
	</g>
</g>
<g id="green_2_">
</g>
<g id="road_1_">
	<g id="road">
	</g>
</g>
<g id="car_1_">
	<g id="car">
	</g>
</g>
<g id="river_1_">
</g>
<g id="part_2">
</g>
<g id="part">
</g>
<g id="tree_1_">
</g>
<g id="green_1_">
</g>
<g id="building_2">
</g>
<g id="building_2_">
</g>
<g id="zigzag_window">
</g>
<g id="circle_window">
</g>
<g id="window">
</g>
<g id="zigzag_green">
</g>
<g id="stone_1_">
</g>
<g id="cloud_1_">
</g>
<g id="hair_4_">
</g>
<g id="body_1_">
</g>
<g id="shoe_2_1_">
</g>
<g id="shoe_1_">
</g>
<g id="leg_2_1_">
</g>
<g id="leg_2_">
</g>
<g id="hand_6_">
</g>
<g id="hand_5_">
</g>
<g id="book_1_">
</g>
<g id="hand_4_">
</g>
<g id="face_1_">
</g>
<g id="hair_3_">
</g>
<g id="hair_part">
</g>
<g id="hand_3_">
</g>
<g id="water_bottle">
	<g id="bottle">
	</g>
</g>
<g id="pilar_3">
</g>
<g id="pilar_2">
</g>
<g id="pilar">
</g>
<g id="Layer_93">
	<rect x="-4" y="-4" class="st30" width="88" height="88"/>
	<path class="st31" d="M63,79H17C8.16,79,1,71.84,1,63V17C1,8.16,8.16,1,17,1h46c8.84,0,16,7.16,16,16v46C79,71.84,71.84,79,63,79z"
		/>
	<path class="st32" d="M60.64,75H19.36C11.43,75,5,68.57,5,60.64V19.36C5,11.43,11.43,5,19.36,5h41.28C68.57,5,75,11.43,75,19.36
		v41.28C75,68.57,68.57,75,60.64,75z"/>
	<g>
		<circle id="bear_tale_3_" class="st7" cx="17.15" cy="61.72" r="2.78"/>
		<path id="bear_paw_3_" class="st7" d="M63.63,67.03H47.29v-8.09h8.25C60.01,58.94,63.63,62.56,63.63,67.03L63.63,67.03z"/>
		<path id="bear_body_6_" class="st5" d="M54.31,22.96v41.68H22.7c-2.34,0-4.24-1.9-4.24-4.24v-7.11c0-0.58,0.02-1.16,0.05-1.74
			c0.03-0.61,0.09-1.21,0.16-1.81c0.15-1.33,0.39-2.63,0.72-3.91c0.14-0.57,0.3-1.14,0.47-1.69c1.1-3.52,2.82-6.81,5.08-9.71
			c2.65-3.41,6.03-6.28,10-8.35l13.14-6.88C50.91,17.7,54.31,19.76,54.31,22.96z"/>
		<path id="bear_paw_2_3_" class="st8" d="M60.8,67.03H47.65c-1.76,0-3.19-1.43-3.19-3.19v-4.91h8.25
			C57.18,58.94,60.8,62.56,60.8,67.03L60.8,67.03z"/>
		<circle id="left_ear_4_" class="st5" cx="44.15" cy="15.97" r="2.71"/>
		<path id="leg_1_" class="st8" d="M48.55,45.09L48.55,45.09c-2.26,0-4.09,1.83-4.09,4.09v9.76h8.17v-9.76
			C52.63,46.92,50.8,45.09,48.55,45.09z"/>
		<circle id="right_ear_4_" class="st5" cx="57.17" cy="15.98" r="2.71"/>
		<path id="face_4_" class="st7" d="M50.7,31.59L50.7,31.59c-3.82,0-6.91-3.09-6.91-6.91v-4.79c0-3.82,3.09-6.91,6.91-6.91h0
			c3.82,0,6.91,3.09,6.91,6.91v4.79C57.61,28.49,54.51,31.59,50.7,31.59z"/>
		<path id="bear_nose_3_" class="st8" d="M47.81,24.62L47.81,24.62c0-1.56,1.26-2.82,2.82-2.82h1.96c1.56,0,2.82,1.26,2.82,2.82v0
			c0,1.56-1.26,2.82-2.82,2.82h-1.96C49.07,27.44,47.81,26.18,47.81,24.62z"/>
		<path id="bear_paw_3_3_" class="st7" d="M42.84,67.03H22.7c-1.68,0-3.13-0.97-3.81-2.39c-0.27-0.56-0.42-1.19-0.42-1.85v-3.85
			h16.29c2.57,0,4.86,1.2,6.34,3.06c0.44,0.55,0.81,1.16,1.09,1.82c0.03,0.06,0.05,0.12,0.08,0.19c0.09,0.21,0.16,0.42,0.23,0.64
			C42.72,65.4,42.84,66.2,42.84,67.03z"/>
		<path id="leg_part_3_" class="st8" d="M42.25,47.28c0,0.5-0.03,0.99-0.08,1.46c-0.16,1.42-0.53,2.77-1.09,4.02
			c-0.74,1.65-1.8,3.12-3.11,4.34c-0.26,0.24-0.52,0.47-0.8,0.69H22.7c-2.16,0-3.94-1.61-4.21-3.7c-0.02-0.18-0.03-0.36-0.03-0.54
			v-0.27c0-0.58,0.02-1.16,0.05-1.74c0.03-0.61,0.09-1.21,0.16-1.81c0.15-1.33,0.39-2.63,0.72-3.91c0.14-0.57,0.3-1.14,0.47-1.69
			c1.1-3.52,2.82-6.81,5.08-9.71c1.23-0.37,2.54-0.57,3.89-0.57c6.92,0,12.63,5.24,13.35,11.97v0
			C42.23,46.31,42.25,46.79,42.25,47.28z"/>
		<circle id="nose_small_3_" class="st5" cx="51.61" cy="24.62" r="1.35"/>
		<path id="bear_part_3_" class="st5" d="M26.55,46.75v20.14c0,0.05,0,0.09,0,0.14H22.7c-1.68,0-3.13-0.97-3.81-2.39
			c-0.27-0.56-0.42-1.19-0.42-1.85v-7.95c0-0.31,0.02-0.61,0.05-0.9c0.24-2.2,1.37-4.13,3.01-5.44
			C22.9,47.4,24.65,46.75,26.55,46.75z"/>
		<path id="legs_part_2_3_" class="st8" d="M42.25,47.28v17.36H18.88c-0.27-0.56-0.42-1.19-0.42-1.85v-9.5
			c0-0.58,0.02-1.16,0.05-1.74c0.03-0.61,0.09-1.21,0.16-1.81c0.15-1.33,0.39-2.63,0.72-3.91L42.25,47.28z"/>
		<path id="bear_paw_4_3_" class="st5" d="M43.2,67.03H32.65c-2.34,0-4.24-1.9-4.24-4.24v-3.85h6.69c4.23,0,7.71,3.26,8.06,7.4
			C43.19,66.57,43.2,66.8,43.2,67.03z"/>
	</g>
</g>
</svg>
