<?xml version="1.0" encoding="utf-8"?>
<!-- Generator: Adobe Illustrator 25.3.1, SVG Export Plug-In . SVG Version: 6.00 Build 0)  -->
<svg version="1.1" xmlns="http://www.w3.org/2000/svg" xmlns:xlink="http://www.w3.org/1999/xlink" x="0px" y="0px"
	 viewBox="0 0 80 80" style="enable-background:new 0 0 80 80;" xml:space="preserve">
<style type="text/css">
	.st0{fill:#DD7357;}
	.st1{fill:none;stroke:#ECECED;stroke-width:2.7853;stroke-linecap:round;stroke-linejoin:round;}
	.st2{fill:none;stroke:#ECECED;stroke-width:2.7853;stroke-linecap:round;stroke-linejoin:round;stroke-dasharray:0,8.3301;}
	.st3{fill:#203F54;}
	.st4{fill:#99CAED;}
	.st5{fill:#C3DDF3;}
	.st6{fill:#EFF2FA;}
	.st7{fill:#DEE9F7;}
	.st8{fill:#A9D0EF;}
	.st9{fill:#8FA38C;}
	.st10{fill:#4C4E67;}
	.st11{fill:#A4BBA1;}
	.st12{fill:#0C2732;}
	.st13{fill:#EABB59;}
	.st14{fill:none;stroke:#010101;stroke-linecap:round;stroke-linejoin:round;stroke-miterlimit:10;}
	.st15{fill:#C4AEA8;}
	.st16{fill:#0C171F;}
	.st17{fill:#010101;}
	.st18{fill:#ECECED;}
	.st19{fill:#9D9A9A;}
	.st20{fill:none;stroke:#F2F2F2;stroke-linecap:round;stroke-linejoin:round;stroke-miterlimit:10;}
	.st21{fill:none;stroke:#A4BBA1;stroke-miterlimit:10;}
	.st22{fill:#70A6CE;}
	.st23{fill:#3D2D33;}
	.st24{fill:#FFFFFF;}
	.st25{fill:#0C2128;}
	.st26{fill:#F6F6F6;}
	.st27{fill:#91C2DB;}
	.st28{fill:none;stroke:#ECECED;stroke-width:0.4587;stroke-miterlimit:10;}
	.st29{fill:none;stroke:#ECECED;stroke-width:0.9836;stroke-miterlimit:10;}
	.st30{display:none;fill:none;stroke:#FF0005;stroke-width:0.75;stroke-miterlimit:10;}
	.st31{display:none;fill:#DEE7F1;}
	.st32{display:none;fill:#FFEE00;}
	.st33{fill:none;stroke:#ECECED;stroke-width:0.7374;stroke-miterlimit:10;}
	.st34{clip-path:url(#SVGID_2_);}
	.st35{fill:none;stroke:#A4BBA1;stroke-width:0.736;stroke-miterlimit:10;}
</style>
<g id="background_1_">
</g>
<g id="zigzag">
</g>
<g id="left_mountain_2_1_">
</g>
<g id="left_mountain_1_">
</g>
<g id="ice_4">
</g>
<g id="ice_3">
</g>
<g id="ice_water">
</g>
<g id="ice_2">
</g>
<g id="sea_water_1_">
</g>
<g id="ice_1">
</g>
<g id="melted_ice">
</g>
<g id="tale">
</g>
<g id="bear_foot_3_">
</g>
<g id="bear_body_3_">
</g>
<g id="leg_4_">
</g>
<g id="left_ear_1_">
</g>
<g id="leg_3_">
</g>
<g id="right_ear_1_">
</g>
<g id="head_1_">
</g>
<g id="nose_1_">
</g>
<g id="bear_foot_2_">
</g>
<g id="ice_mountain">
</g>
<g id="leaf">
</g>
<g id="bear_body_2_">
</g>
<g id="nose">
</g>
<g id="bear_foot_1_">
</g>
<g id="bear_body_1_">
</g>
<g id="bear_foot">
</g>
<g id="leaf_2_1_">
</g>
<g id="ice_part_3">
</g>
<g id="ice_part_2">
</g>
<g id="ice_part">
</g>
<g id="background_part_2_">
</g>
<g id="containers_1_">
	<g id="containers">
	</g>
</g>
<g id="boat_1_">
</g>
<g id="factory_part">
</g>
<g id="tube_2">
</g>
<g id="tube">
</g>
<g id="factory_2">
</g>
<g id="factory">
</g>
<g id="door">
</g>
<g id="window_factory_2">
</g>
<g id="window_factory">
</g>
<g id="factory_window">
</g>
<g id="black_cloud_1_">
</g>
<g id="black_cloud">
</g>
<g id="element">
</g>
<g id="green_4_">
</g>
<g id="background_part_1_">
</g>
<g id="factory_ground">
</g>
<g id="stair">
</g>
<g id="green_3_">
</g>
<g id="road_part_1_">
	<g id="road_part">
	</g>
</g>
<g id="green_2_">
</g>
<g id="road_1_">
	<g id="road">
	</g>
</g>
<g id="car_1_">
	<g id="car">
	</g>
</g>
<g id="river_1_">
</g>
<g id="part_2">
</g>
<g id="part">
</g>
<g id="tree_1_">
</g>
<g id="green_1_">
</g>
<g id="building_2">
</g>
<g id="building_2_">
</g>
<g id="zigzag_window">
</g>
<g id="circle_window">
</g>
<g id="window">
</g>
<g id="zigzag_green">
</g>
<g id="stone_1_">
</g>
<g id="cloud_1_">
</g>
<g id="hair_4_">
</g>
<g id="body_1_">
</g>
<g id="shoe_2_1_">
</g>
<g id="shoe_1_">
</g>
<g id="leg_2_1_">
</g>
<g id="leg_2_">
</g>
<g id="hand_6_">
</g>
<g id="hand_5_">
</g>
<g id="book_1_">
</g>
<g id="hand_4_">
</g>
<g id="face_1_">
</g>
<g id="hair_3_">
</g>
<g id="hair_part">
</g>
<g id="hand_3_">
</g>
<g id="water_bottle">
	<g id="bottle">
	</g>
</g>
<g id="pilar_3">
</g>
<g id="pilar_2">
</g>
<g id="pilar">
</g>
<g id="Layer_93">
	<rect x="-4" y="-4" class="st30" width="88" height="88"/>
	<path class="st31" d="M63,79H17C8.16,79,1,71.84,1,63V17C1,8.16,8.16,1,17,1h46c8.84,0,16,7.16,16,16v46C79,71.84,71.84,79,63,79z"
		/>
	<path class="st32" d="M60.64,75H19.36C11.43,75,5,68.57,5,60.64V19.36C5,11.43,11.43,5,19.36,5h41.28C68.57,5,75,11.43,75,19.36
		v41.28C75,68.57,68.57,75,60.64,75z"/>
	<path id="black_cloud_1_3_" class="st16" d="M37.39,22.94c-1.84,0-3.56,0.52-5.03,1.4c-2.26-2.41-5.46-3.93-9.02-3.93
		c-6.82,0-12.36,5.53-12.36,12.36h16.58h8.13h11.52C47.22,27.34,42.82,22.94,37.39,22.94z"/>
	<path id="black_cloud_2_5_" class="st16" d="M61.53,44.35c-1.84,0-3.56,0.52-5.03,1.4c-2.26-2.41-5.46-3.93-9.02-3.93
		c-6.82,0-12.36,5.53-12.36,12.36H51.7h8.13h11.52C71.36,48.75,66.96,44.35,61.53,44.35z"/>
</g>
</svg>
